<svg xmlns="http://www.w3.org/2000/svg" width="28" height="40" viewBox="0 0 28 40">
    <g fill="#211F35">
        <path d="M12.37 39.375c.358.347.84.533 1.308.533.468 0 .95-.173 1.307-.533l11.81-11.43c.73-.707.73-1.84 0-2.545-.73-.707-1.9-.707-2.629 0l-10.21 10.04L3.176 25.4c-.73-.707-1.9-.707-2.629 0-.73.706-.73 1.838 0 2.544L12.37 39.375zM12.37 1.685c.358-.347.84-.533 1.308-.533.468 0 .95.173 1.307.533l11.81 11.43c.73.707.73 1.84 0 2.545-.73.707-1.9.707-2.629 0L13.956 5.62 3.176 15.66c-.73.707-1.9.707-2.629 0-.73-.706-.73-1.838 0-2.544L12.37 1.685z" transform="translate(.46 -.45)"/>
    </g>
</svg>
